<svg width="81" height="12" viewBox="0 0 81 12" fill="none" xmlns="http://www.w3.org/2000/svg">
<path d="M5.43569 9.24121L2.8994 6.0492L3.8768 5.45534L6.83374 9.24121H5.43569ZM0.684788 9.24121V2.68398H1.87251V9.24121H0.684788ZM1.51372 6.46985V5.45534H3.67884V6.46985H1.51372ZM3.97577 6.09869L2.87466 5.95022L5.3862 2.68398H6.66053L3.97577 6.09869ZM11.9073 9.31544C11.2474 9.31544 10.6618 9.1711 10.1504 8.88242C9.63905 8.59374 9.2349 8.19783 8.93797 7.69469C8.64103 7.18331 8.49257 6.60595 8.49257 5.9626C8.49257 5.311 8.64103 4.73363 8.93797 4.2305C9.2349 3.72736 9.63905 3.33558 10.1504 3.05515C10.6618 2.76646 11.2474 2.62212 11.9073 2.62212C12.5589 2.62212 13.1404 2.76646 13.6517 3.05515C14.1714 3.33558 14.5755 3.72736 14.8642 4.2305C15.1611 4.72538 15.3096 5.30275 15.3096 5.9626C15.3096 6.6142 15.1611 7.19156 14.8642 7.69469C14.5755 8.19783 14.1714 8.59374 13.6517 8.88242C13.1404 9.1711 12.5589 9.31544 11.9073 9.31544ZM11.9073 8.27618C12.3279 8.27618 12.7032 8.18133 13.0331 7.99163C13.3713 7.80192 13.6353 7.53386 13.825 7.18744C14.0147 6.83277 14.1095 6.42449 14.1095 5.9626C14.1095 5.49246 14.0147 5.0883 13.825 4.75013C13.6353 4.40371 13.3713 4.13564 13.0331 3.94594C12.7032 3.75623 12.3279 3.66138 11.9073 3.66138C11.4866 3.66138 11.1113 3.75623 10.7814 3.94594C10.4515 4.13564 10.1876 4.40371 9.9896 4.75013C9.79164 5.0883 9.69266 5.49246 9.69266 5.9626C9.69266 6.42449 9.79164 6.83277 9.9896 7.18744C10.1876 7.53386 10.4515 7.80192 10.7814 7.99163C11.1113 8.18133 11.4866 8.27618 11.9073 8.27618ZM22.1715 9.34019C22.1633 9.34019 22.1344 9.34019 22.0849 9.34019C22.0437 9.34019 22.0024 9.34019 21.9612 9.34019C21.9199 9.34019 21.8952 9.34019 21.8869 9.34019C20.5425 9.32369 19.4991 9.02676 18.7568 8.44939C18.0145 7.86378 17.6433 7.03072 17.6433 5.95022C17.6433 4.87797 18.0145 4.05729 18.7568 3.48817C19.5074 2.9108 20.5631 2.618 21.9241 2.60975C21.9406 2.60975 21.9653 2.60975 21.9983 2.60975C22.0395 2.60975 22.0767 2.60975 22.1096 2.60975C22.1509 2.60975 22.1756 2.60975 22.1839 2.60975C23.5613 2.60975 24.6294 2.89843 25.3883 3.4758C26.1553 4.05316 26.5389 4.87797 26.5389 5.95022C26.5389 7.03897 26.1553 7.87615 25.3883 8.46177C24.6212 9.04738 23.5489 9.34019 22.1715 9.34019ZM22.1468 8.30093C22.8643 8.30093 23.4582 8.2102 23.9283 8.02874C24.4067 7.84728 24.7655 7.58335 25.0047 7.23693C25.2439 6.89051 25.3635 6.46161 25.3635 5.95022C25.3635 5.44709 25.2439 5.02644 25.0047 4.68827C24.7655 4.3501 24.4067 4.0944 23.9283 3.92119C23.4582 3.74798 22.8643 3.66138 22.1468 3.66138C22.1303 3.66138 22.0973 3.66138 22.0478 3.66138C21.9983 3.66138 21.9694 3.66138 21.9612 3.66138C21.2601 3.66138 20.6745 3.75211 20.2043 3.93357C19.7424 4.10678 19.396 4.36247 19.1651 4.70064C18.9341 5.03881 18.8187 5.45534 18.8187 5.95022C18.8187 6.45336 18.9341 6.87813 19.1651 7.22455C19.4043 7.57097 19.7548 7.83491 20.2167 8.01637C20.6868 8.19783 21.2683 8.29268 21.9612 8.30093C21.9777 8.30093 22.0065 8.30093 22.0478 8.30093C22.0973 8.30093 22.1303 8.30093 22.1468 8.30093ZM21.5034 11.6414V0.0610896H22.6664V11.6414H21.5034ZM32.3746 9.31544C31.6736 9.31544 31.055 9.1711 30.5188 8.88242C29.991 8.59374 29.5785 8.19783 29.2816 7.69469C28.9929 7.19156 28.8486 6.6142 28.8486 5.9626C28.8486 5.311 28.9888 4.73363 29.2692 4.2305C29.5579 3.72736 29.9497 3.33558 30.4446 3.05515C30.9477 2.76646 31.5127 2.62212 32.1396 2.62212C32.7747 2.62212 33.3355 2.76234 33.8222 3.04277C34.3088 3.32321 34.6882 3.71912 34.9604 4.2305C35.2409 4.73363 35.3811 5.32337 35.3811 5.99971C35.3811 6.0492 35.377 6.10694 35.3687 6.17292C35.3687 6.23891 35.3646 6.30077 35.3563 6.3585H29.7765V5.50483H34.7377L34.2552 5.80176C34.2635 5.38111 34.1769 5.00582 33.9954 4.67589C33.8139 4.34597 33.5624 4.09028 33.2407 3.90882C32.9273 3.71912 32.5602 3.62426 32.1396 3.62426C31.7272 3.62426 31.3601 3.71912 31.0385 3.90882C30.7168 4.09028 30.4652 4.3501 30.2838 4.68827C30.1023 5.01819 30.0116 5.3976 30.0116 5.8265V6.02446C30.0116 6.46161 30.1105 6.85339 30.3085 7.19981C30.5147 7.53798 30.7993 7.80192 31.1622 7.99163C31.5251 8.18133 31.9416 8.27618 32.4118 8.27618C32.7994 8.27618 33.15 8.2102 33.4634 8.07823C33.7851 7.94626 34.0655 7.74831 34.3047 7.48437L34.9604 8.25144C34.6635 8.59786 34.2923 8.8618 33.8469 9.04326C33.4098 9.22471 32.919 9.31544 32.3746 9.31544ZM43.0207 9.24121V2.68398H44.2084V7.45962L48.2293 2.68398H49.3057V9.24121H48.118V4.46557L44.1094 9.24121H43.0207ZM60.3279 9.31544C59.6268 9.31544 59.0082 9.1711 58.4721 8.88242C57.9442 8.59374 57.5318 8.19783 57.2349 7.69469C56.9462 7.19156 56.8019 6.6142 56.8019 5.9626C56.8019 5.311 56.9421 4.73363 57.2225 4.2305C57.5112 3.72736 57.903 3.33558 58.3979 3.05515C58.901 2.76646 59.466 2.62212 60.0929 2.62212C60.728 2.62212 61.2888 2.76234 61.7755 3.04277C62.2621 3.32321 62.6415 3.71912 62.9137 4.2305C63.1941 4.73363 63.3344 5.32337 63.3344 5.99971C63.3344 6.0492 63.3302 6.10694 63.322 6.17292C63.322 6.23891 63.3179 6.30077 63.3096 6.3585H57.7298V5.50483H62.691L62.2085 5.80176C62.2167 5.38111 62.1301 5.00582 61.9487 4.67589C61.7672 4.34597 61.5157 4.09028 61.194 3.90882C60.8806 3.71912 60.5135 3.62426 60.0929 3.62426C59.6805 3.62426 59.3134 3.71912 58.9917 3.90882C58.6701 4.09028 58.4185 4.3501 58.237 4.68827C58.0556 5.01819 57.9649 5.3976 57.9649 5.8265V6.02446C57.9649 6.46161 58.0638 6.85339 58.2618 7.19981C58.468 7.53798 58.7525 7.80192 59.1155 7.99163C59.4784 8.18133 59.8949 8.27618 60.365 8.27618C60.7527 8.27618 61.1033 8.2102 61.4167 8.07823C61.7384 7.94626 62.0188 7.74831 62.258 7.48437L62.9137 8.25144C62.6168 8.59786 62.2456 8.8618 61.8002 9.04326C61.3631 9.22471 60.8723 9.31544 60.3279 9.31544ZM70.7841 8.68447V3.72324H67.9385L67.8767 4.9852C67.8602 5.3976 67.8313 5.79763 67.7901 6.18529C67.7571 6.56471 67.6993 6.91525 67.6169 7.23693C67.5426 7.5586 67.4313 7.82254 67.2828 8.02874C67.1343 8.23494 66.9364 8.36279 66.6889 8.41228L65.5136 8.20195C65.7693 8.2102 65.9755 8.12772 66.1322 7.95451C66.2889 7.77305 66.4085 7.52561 66.491 7.21218C66.5817 6.89875 66.6477 6.54409 66.6889 6.14818C66.7302 5.74402 66.7632 5.32749 66.7879 4.89859L66.8869 2.68398H71.9718V8.68447H70.7841ZM65.2538 10.763V8.20195H72.974V10.763H71.8605V9.24121H66.3796V10.763H65.2538ZM79.7794 9.24121V7.85553L79.7176 7.59572V5.23264C79.7176 4.72951 79.5691 4.34185 79.2722 4.06966C78.9835 3.78923 78.5463 3.64901 77.9607 3.64901C77.5731 3.64901 77.1937 3.71499 76.8225 3.84696C76.4513 3.97068 76.1379 4.13977 75.8822 4.35422L75.3873 3.46343C75.7255 3.19124 76.1297 2.98504 76.5998 2.84482C77.0782 2.69635 77.5772 2.62212 78.0968 2.62212C78.9959 2.62212 79.6887 2.8407 80.1753 3.27784C80.662 3.71499 80.9053 4.38309 80.9053 5.28213V9.24121H79.7794ZM77.6267 9.31544C77.14 9.31544 76.7111 9.23296 76.34 9.068C75.9771 8.90304 75.6966 8.67622 75.4987 8.38753C75.3007 8.0906 75.2017 7.75656 75.2017 7.38539C75.2017 7.03072 75.2842 6.70905 75.4492 6.42037C75.6224 6.13168 75.8987 5.90074 76.2781 5.72753C76.6658 5.55432 77.1854 5.46771 77.837 5.46771H79.9155V6.32139H77.8865C77.2926 6.32139 76.8926 6.42037 76.6864 6.61832C76.4802 6.81627 76.3771 7.05547 76.3771 7.3359C76.3771 7.65758 76.5049 7.91739 76.7606 8.11535C77.0163 8.30505 77.371 8.39991 77.8246 8.39991C78.27 8.39991 78.6577 8.30093 78.9876 8.10297C79.3258 7.90502 79.5691 7.61634 79.7176 7.23693L79.9526 8.05349C79.7959 8.44115 79.5196 8.75045 79.1237 8.9814C78.7278 9.20409 78.2288 9.31544 77.6267 9.31544Z" fill="#D6E8F4"/>
</svg>
