<svg width="158" height="27" viewBox="0 0 158 27" fill="none" xmlns="http://www.w3.org/2000/svg">
<path d="M14.1031 26.0403C12.1852 26.0403 10.3992 25.7286 8.74506 25.1053C7.11489 24.458 5.68849 23.559 4.46587 22.4083C3.26721 21.2337 2.33226 19.8552 1.66101 18.273C0.989767 16.6908 0.654144 14.9647 0.654144 13.0948C0.654144 11.2249 0.989767 9.49882 1.66101 7.9166C2.33226 6.33438 3.2792 4.96791 4.50183 3.8172C5.72445 2.64252 7.15085 1.74353 8.78102 1.12023C10.4112 0.472952 12.1972 0.149315 14.139 0.149315C16.2007 0.149315 18.0826 0.508912 19.7847 1.22811C21.4868 1.92333 22.9252 2.96615 24.0998 4.35659L21.0792 7.19741C20.1682 6.21451 19.1494 5.48333 18.0227 5.00387C16.8959 4.50043 15.6733 4.24872 14.3548 4.24872C13.0362 4.24872 11.8256 4.46447 10.7228 4.89599C9.64406 5.32751 8.69712 5.93882 7.88203 6.72993C7.09092 7.52104 6.46762 8.45599 6.01213 9.53478C5.58062 10.6136 5.36486 11.8002 5.36486 13.0948C5.36486 14.3893 5.58062 15.576 6.01213 16.6548C6.46762 17.7336 7.09092 18.6685 7.88203 19.4596C8.69712 20.2508 9.64406 20.8621 10.7228 21.2936C11.8256 21.7251 13.0362 21.9409 14.3548 21.9409C15.6733 21.9409 16.8959 21.7011 18.0227 21.2217C19.1494 20.7182 20.1682 19.9631 21.0792 18.9562L24.0998 21.833C22.9252 23.1994 21.4868 24.2423 19.7847 24.9615C18.0826 25.6807 16.1887 26.0403 14.1031 26.0403ZM32.7914 25.6807V0.508911H36.6031L47.6427 18.8843H45.593L56.4528 0.508911H60.2646L60.3365 25.6807H55.8775L55.8415 7.44912H56.7765L47.5708 22.8039H45.4851L36.1356 7.44912H37.2144V25.6807H32.7914ZM76.0109 10.9732H88.5249V14.8209H76.0109V10.9732ZM76.3705 21.7611H90.5746V25.6807H71.6958V0.508911H90.0712V4.42851H76.3705V21.7611ZM117.793 0.508911H122.468V25.6807H117.793V0.508911ZM104.776 25.6807H100.101V0.508911H104.776V25.6807ZM118.153 14.8928H104.38V10.9012H118.153V14.8928ZM130.644 25.6807L141.971 0.508911H146.574L157.937 25.6807H153.047L143.302 2.99013H145.171L135.462 25.6807H130.644ZM135.858 19.8552L137.117 16.1873H150.709L151.968 19.8552H135.858Z" fill="#D6E8F4"/>
</svg>
