<svg width="160" height="60" viewBox="0 0 160 60" fill="none" xmlns="http://www.w3.org/2000/svg">
<path d="M15.12 36.0407C13.2 36.0407 11.412 35.7287 9.756 35.1047C8.124 34.4567 6.696 33.5567 5.472 32.4047C4.272 31.2287 3.336 29.8487 2.664 28.2647C1.992 26.6807 1.656 24.9527 1.656 23.0807C1.656 21.2087 1.992 19.4807 2.664 17.8967C3.336 16.3127 4.284 14.9447 5.508 13.7927C6.732 12.6167 8.16 11.7167 9.792 11.0927C11.424 10.4447 13.212 10.1207 15.156 10.1207C17.22 10.1207 19.104 10.4807 20.808 11.2007C22.512 11.8967 23.952 12.9407 25.128 14.3327L22.104 17.1767C21.192 16.1927 20.172 15.4607 19.044 14.9807C17.916 14.4767 16.692 14.2247 15.372 14.2247C14.052 14.2247 12.84 14.4407 11.736 14.8727C10.656 15.3047 9.708 15.9167 8.892 16.7087C8.1 17.5007 7.476 18.4367 7.02 19.5167C6.588 20.5967 6.372 21.7847 6.372 23.0807C6.372 24.3767 6.588 25.5647 7.02 26.6447C7.476 27.7247 8.1 28.6607 8.892 29.4527C9.708 30.2447 10.656 30.8567 11.736 31.2887C12.84 31.7207 14.052 31.9367 15.372 31.9367C16.692 31.9367 17.916 31.6967 19.044 31.2167C20.172 30.7127 21.192 29.9567 22.104 28.9487L25.128 31.8287C23.952 33.1967 22.512 34.2407 20.808 34.9607C19.104 35.6807 17.208 36.0407 15.12 36.0407ZM33.8293 35.6807V10.4807H37.6453L48.6973 28.8767H46.6453L57.5173 10.4807H61.3333L61.4053 35.6807H56.9413L56.9053 17.4287H57.8413L48.6253 32.8007H46.5373L37.1773 17.4287H38.2573V35.6807H33.8293ZM77.0974 20.9567H89.6254V24.8087H77.0974V20.9567ZM77.4574 31.7567H91.6774V35.6807H72.7774V10.4807H91.1734V14.4047H77.4574V31.7567ZM118.927 10.4807H123.607V35.6807H118.927V10.4807ZM105.895 35.6807H101.215V10.4807H105.895V35.6807ZM119.287 24.8807H105.499V20.8847H119.287V24.8807ZM131.791 35.6807L143.131 10.4807H147.739L159.115 35.6807H154.219L144.463 12.9647H146.335L136.615 35.6807H131.791ZM137.011 29.8487L138.271 26.1767H151.879L153.14 29.8487H137.011Z" fill="white"/>
<path d="M44.4354 56.2408L41.8992 53.0488L42.8766 52.455L45.8335 56.2408H44.4354ZM39.6845 56.2408V49.6836H40.8723V56.2408H39.6845ZM40.5135 53.4695V52.455H42.6786V53.4695H40.5135ZM42.9755 53.0983L41.8744 52.9499L44.386 49.6836H45.6603L42.9755 53.0983ZM50.907 56.3151C50.2472 56.3151 49.6616 56.1707 49.1502 55.8821C48.6388 55.5934 48.2347 55.1975 47.9377 54.6943C47.6408 54.1829 47.4923 53.6056 47.4923 52.9622C47.4923 52.3106 47.6408 51.7333 47.9377 51.2301C48.2347 50.727 48.6388 50.3352 49.1502 50.0548C49.6616 49.7661 50.2472 49.6218 50.907 49.6218C51.5586 49.6218 52.1401 49.7661 52.6515 50.0548C53.1711 50.3352 53.5753 50.727 53.864 51.2301C54.1609 51.725 54.3094 52.3024 54.3094 52.9622C54.3094 53.6138 54.1609 54.1912 53.864 54.6943C53.5753 55.1975 53.1711 55.5934 52.6515 55.8821C52.1401 56.1707 51.5586 56.3151 50.907 56.3151ZM50.907 55.2758C51.3277 55.2758 51.703 55.181 52.0329 54.9913C52.3711 54.8016 52.635 54.5335 52.8247 54.1871C53.0144 53.8324 53.1093 53.4241 53.1093 52.9622C53.1093 52.4921 53.0144 52.0879 52.8247 51.7498C52.635 51.4033 52.3711 51.1353 52.0329 50.9456C51.703 50.7559 51.3277 50.661 50.907 50.661C50.4864 50.661 50.1111 50.7559 49.7812 50.9456C49.4512 51.1353 49.1873 51.4033 48.9894 51.7498C48.7914 52.0879 48.6924 52.4921 48.6924 52.9622C48.6924 53.4241 48.7914 53.8324 48.9894 54.1871C49.1873 54.5335 49.4512 54.8016 49.7812 54.9913C50.1111 55.181 50.4864 55.2758 50.907 55.2758ZM61.1713 56.3398C61.163 56.3398 61.1341 56.3398 61.0847 56.3398C61.0434 56.3398 61.0022 56.3398 60.9609 56.3398C60.9197 56.3398 60.8949 56.3398 60.8867 56.3398C59.5423 56.3233 58.4989 56.0264 57.7566 55.449C57.0142 54.8634 56.6431 54.0304 56.6431 52.9499C56.6431 51.8776 57.0142 51.0569 57.7566 50.4878C58.5071 49.9104 59.5629 49.6176 60.9238 49.6094C60.9403 49.6094 60.9651 49.6094 60.9981 49.6094C61.0393 49.6094 61.0764 49.6094 61.1094 49.6094C61.1506 49.6094 61.1754 49.6094 61.1836 49.6094C62.5611 49.6094 63.6292 49.8981 64.388 50.4754C65.1551 51.0528 65.5386 51.8776 65.5386 52.9499C65.5386 54.0386 65.1551 54.8758 64.388 55.4614C63.6209 56.047 62.5487 56.3398 61.1713 56.3398ZM61.1465 55.3006C61.8641 55.3006 62.458 55.2098 62.9281 55.0284C63.4065 54.8469 63.7653 54.583 64.0045 54.2366C64.2437 53.8901 64.3633 53.4612 64.3633 52.9499C64.3633 52.4467 64.2437 52.0261 64.0045 51.6879C63.7653 51.3497 63.4065 51.094 62.9281 50.9208C62.458 50.7476 61.8641 50.661 61.1465 50.661C61.13 50.661 61.097 50.661 61.0475 50.661C60.9981 50.661 60.9692 50.661 60.9609 50.661C60.2598 50.661 59.6742 50.7517 59.2041 50.9332C58.7422 51.1064 58.3958 51.3621 58.1648 51.7003C57.9339 52.0384 57.8184 52.455 57.8184 52.9499C57.8184 53.453 57.9339 53.8778 58.1648 54.2242C58.404 54.5706 58.7546 54.8345 59.2165 55.016C59.6866 55.1975 60.2681 55.2923 60.9609 55.3006C60.9774 55.3006 61.0063 55.3006 61.0475 55.3006C61.097 55.3006 61.13 55.3006 61.1465 55.3006ZM60.5032 58.641V47.0607H61.6661V58.641H60.5032ZM71.3744 56.3151C70.6733 56.3151 70.0547 56.1707 69.5186 55.8821C68.9907 55.5934 68.5783 55.1975 68.2814 54.6943C67.9927 54.1912 67.8483 53.6138 67.8483 52.9622C67.8483 52.3106 67.9886 51.7333 68.269 51.2301C68.5577 50.727 68.9495 50.3352 69.4444 50.0548C69.9475 49.7661 70.5125 49.6218 71.1393 49.6218C71.7744 49.6218 72.3353 49.762 72.8219 50.0424C73.3086 50.3228 73.688 50.7188 73.9602 51.2301C74.2406 51.7333 74.3808 52.323 74.3808 52.9993C74.3808 53.0488 74.3767 53.1066 74.3685 53.1726C74.3685 53.2385 74.3643 53.3004 74.3561 53.3581H68.7763V52.5045H73.7375L73.255 52.8014C73.2632 52.3807 73.1766 52.0055 72.9952 51.6755C72.8137 51.3456 72.5621 51.0899 72.2405 50.9085C71.927 50.7188 71.56 50.6239 71.1393 50.6239C70.7269 50.6239 70.3599 50.7188 70.0382 50.9085C69.7165 51.0899 69.465 51.3497 69.2835 51.6879C69.1021 52.0178 69.0113 52.3972 69.0113 52.8261V53.0241C69.0113 53.4612 69.1103 53.853 69.3083 54.1994C69.5145 54.5376 69.799 54.8016 70.1619 54.9913C70.5249 55.181 70.9414 55.2758 71.4115 55.2758C71.7992 55.2758 72.1497 55.2098 72.4632 55.0779C72.7848 54.9459 73.0653 54.7479 73.3045 54.484L73.9602 55.2511C73.6632 55.5975 73.2921 55.8614 72.8467 56.0429C72.4095 56.2243 71.9188 56.3151 71.3744 56.3151ZM82.0204 56.2408V49.6836H83.2082V54.4593L87.2291 49.6836H88.3055V56.2408H87.1177V51.4652L83.1092 56.2408H82.0204ZM99.3277 56.3151C98.6266 56.3151 98.008 56.1707 97.4719 55.8821C96.944 55.5934 96.5316 55.1975 96.2347 54.6943C95.946 54.1912 95.8016 53.6138 95.8016 52.9622C95.8016 52.3106 95.9418 51.7333 96.2223 51.2301C96.511 50.727 96.9027 50.3352 97.3976 50.0548C97.9008 49.7661 98.4658 49.6218 99.0926 49.6218C99.7277 49.6218 100.289 49.762 100.775 50.0424C101.262 50.3228 101.641 50.7188 101.913 51.2301C102.194 51.7333 102.334 52.323 102.334 52.9993C102.334 53.0488 102.33 53.1066 102.322 53.1726C102.322 53.2385 102.318 53.3004 102.309 53.3581H96.7295V52.5045H101.691L101.208 52.8014C101.216 52.3807 101.13 52.0055 100.948 51.6755C100.767 51.3456 100.515 51.0899 100.194 50.9085C99.8803 50.7188 99.5133 50.6239 99.0926 50.6239C98.6802 50.6239 98.3132 50.7188 97.9915 50.9085C97.6698 51.0899 97.4183 51.3497 97.2368 51.6879C97.0553 52.0178 96.9646 52.3972 96.9646 52.8261V53.0241C96.9646 53.4612 97.0636 53.853 97.2615 54.1994C97.4677 54.5376 97.7523 54.8016 98.1152 54.9913C98.4781 55.181 98.8947 55.2758 99.3648 55.2758C99.7525 55.2758 100.103 55.2098 100.416 55.0779C100.738 54.9459 101.019 54.7479 101.258 54.484L101.913 55.2511C101.617 55.5975 101.245 55.8614 100.8 56.0429C100.363 56.2243 99.8721 56.3151 99.3277 56.3151ZM109.784 55.6841V50.7229H106.938L106.876 51.9848C106.86 52.3972 106.831 52.7973 106.79 53.1849C106.757 53.5643 106.699 53.9149 106.617 54.2366C106.542 54.5582 106.431 54.8222 106.283 55.0284C106.134 55.2346 105.936 55.3624 105.689 55.4119L104.513 55.2016C104.769 55.2098 104.975 55.1274 105.132 54.9541C105.289 54.7727 105.408 54.5252 105.491 54.2118C105.581 53.8984 105.647 53.5437 105.689 53.1478C105.73 52.7437 105.763 52.3271 105.788 51.8982L105.887 49.6836H110.972V55.6841H109.784ZM104.254 57.7626V55.2016H111.974V57.7626H110.86V56.2408H105.379V57.7626H104.254ZM118.779 56.2408V54.8552L118.717 54.5954V52.2323C118.717 51.7291 118.569 51.3415 118.272 51.0693C117.983 50.7889 117.546 50.6486 116.96 50.6486C116.573 50.6486 116.193 50.7146 115.822 50.8466C115.451 50.9703 115.138 51.1394 114.882 51.3539L114.387 50.4631C114.725 50.1909 115.129 49.9847 115.6 49.8445C116.078 49.696 116.577 49.6218 117.097 49.6218C117.996 49.6218 118.688 49.8403 119.175 50.2775C119.662 50.7146 119.905 51.3827 119.905 52.2818V56.2408H118.779ZM116.626 56.3151C116.14 56.3151 115.711 56.2326 115.34 56.0676C114.977 55.9027 114.696 55.6759 114.498 55.3872C114.3 55.0902 114.201 54.7562 114.201 54.385C114.201 54.0304 114.284 53.7087 114.449 53.42C114.622 53.1313 114.898 52.9004 115.278 52.7272C115.666 52.5539 116.185 52.4673 116.837 52.4673H118.915V53.321H116.886C116.292 53.321 115.892 53.42 115.686 53.618C115.48 53.8159 115.377 54.0551 115.377 54.3355C115.377 54.6572 115.505 54.917 115.76 55.115C116.016 55.3047 116.371 55.3995 116.824 55.3995C117.27 55.3995 117.657 55.3006 117.987 55.1026C118.326 54.9047 118.569 54.616 118.717 54.2366L118.952 55.0531C118.796 55.4408 118.519 55.7501 118.123 55.981C117.728 56.2037 117.229 56.3151 116.626 56.3151Z" fill="white"/>
<path d="M31.4136 50.9424L32.2606 52.1896L33.5078 53.0366L32.2606 53.8837L31.4136 55.1309L30.5665 53.8837L29.3193 53.0366L30.5665 52.1896L31.4136 50.9424Z" fill="white"/>
<path d="M128.586 50.9424L129.433 52.1896L130.681 53.0366L129.433 53.8837L128.586 55.1309L127.739 53.8837L126.492 53.0366L127.739 52.1896L128.586 50.9424Z" fill="white"/>
</svg>
