<svg width="169" height="69" viewBox="0 0 169 69" fill="none" xmlns="http://www.w3.org/2000/svg">
<path id="Ellipse 5" d="M166.763 56.8582C165.981 59.7327 163.268 62.2301 158.377 64.0944C153.525 65.9444 146.832 67.0435 138.717 67.3149C122.507 67.857 100.976 65.0862 77.9937 58.8347C55.0115 52.5831 35.0436 44.0654 21.3418 35.3868C14.4828 31.0424 9.26895 26.7044 6.02192 22.6511C2.74982 18.5665 1.6757 15.0389 2.45759 12.1645C3.23948 9.29003 5.95254 6.79257 10.8428 4.92828C15.6957 3.07828 22.3885 1.97917 30.503 1.7078C46.713 1.16572 68.2442 3.93644 91.2265 10.188C114.209 16.4396 134.177 24.9573 147.878 33.6359C154.737 37.9803 159.951 42.3183 163.198 46.3716C166.47 50.4561 167.545 53.9838 166.763 56.8582Z" stroke="#D6E8F4" stroke-width="3"/>
</svg>
