<svg width="159" height="27" viewBox="0 0 159 27" fill="none" xmlns="http://www.w3.org/2000/svg">
<path d="M14.12 26.0407C12.2 26.0407 10.412 25.7287 8.756 25.1047C7.124 24.4567 5.696 23.5567 4.472 22.4047C3.272 21.2287 2.336 19.8487 1.664 18.2647C0.992 16.6807 0.656 14.9527 0.656 13.0807C0.656 11.2087 0.992 9.48066 1.664 7.89666C2.336 6.31266 3.284 4.94466 4.508 3.79266C5.732 2.61666 7.16 1.71666 8.792 1.09266C10.424 0.444663 12.212 0.120663 14.156 0.120663C16.22 0.120663 18.104 0.480663 19.808 1.20066C21.512 1.89666 22.952 2.94066 24.128 4.33266L21.104 7.17666C20.192 6.19266 19.172 5.46066 18.044 4.98066C16.916 4.47666 15.692 4.22466 14.372 4.22466C13.052 4.22466 11.84 4.44066 10.736 4.87266C9.656 5.30466 8.708 5.91666 7.892 6.70866C7.1 7.50066 6.476 8.43666 6.02 9.51666C5.588 10.5967 5.372 11.7847 5.372 13.0807C5.372 14.3767 5.588 15.5647 6.02 16.6447C6.476 17.7247 7.1 18.6607 7.892 19.4527C8.708 20.2447 9.656 20.8567 10.736 21.2887C11.84 21.7207 13.052 21.9367 14.372 21.9367C15.692 21.9367 16.916 21.6967 18.044 21.2167C19.172 20.7127 20.192 19.9567 21.104 18.9487L24.128 21.8287C22.952 23.1967 21.512 24.2407 19.808 24.9607C18.104 25.6807 16.208 26.0407 14.12 26.0407ZM32.8293 25.6807V0.480662H36.6453L47.6973 18.8767H45.6453L56.5173 0.480662H60.3333L60.4053 25.6807H55.9413L55.9053 7.42866H56.8413L47.6253 22.8007H45.5373L36.1773 7.42866H37.2573V25.6807H32.8293ZM76.0974 10.9567H88.6254V14.8087H76.0974V10.9567ZM76.4574 21.7567H90.6774V25.6807H71.7774V0.480662H90.1734V4.40466H76.4574V21.7567ZM117.927 0.480662H122.607V25.6807H117.927V0.480662ZM104.895 25.6807H100.215V0.480662H104.895V25.6807ZM118.287 14.8807H104.499V10.8847H118.287V14.8807ZM130.791 25.6807L142.131 0.480662H146.739L158.115 25.6807H153.219L143.463 2.96466H145.335L135.615 25.6807H130.791ZM136.011 19.8487L137.271 16.1767H150.879L152.14 19.8487H136.011Z" fill="white"/>
</svg>
