<svg width="81" height="12" viewBox="0 0 81 12" fill="none" xmlns="http://www.w3.org/2000/svg">
<path d="M5.43544 9.24084L2.89916 6.04883L3.87655 5.45497L6.83349 9.24084H5.43544ZM0.684544 9.24084V2.68362H1.87227V9.24084H0.684544ZM1.51348 6.46949V5.45497H3.6786V6.46949H1.51348ZM3.97553 6.09832L2.87441 5.94986L5.38595 2.68362H6.66028L3.97553 6.09832ZM11.907 9.31508C11.2472 9.31508 10.6616 9.17074 10.1502 8.88205C9.63881 8.59337 9.23465 8.19746 8.93772 7.69433C8.64079 7.18295 8.49232 6.60558 8.49232 5.96223C8.49232 5.31063 8.64079 4.73326 8.93772 4.23013C9.23465 3.727 9.63881 3.33521 10.1502 3.05478C10.6616 2.7661 11.2472 2.62175 11.907 2.62175C12.5586 2.62175 13.1401 2.7661 13.6515 3.05478C14.1711 3.33521 14.5753 3.727 14.864 4.23013C15.1609 4.72502 15.3094 5.30238 15.3094 5.96223C15.3094 6.61383 15.1609 7.1912 14.864 7.69433C14.5753 8.19746 14.1711 8.59337 13.6515 8.88205C13.1401 9.17074 12.5586 9.31508 11.907 9.31508ZM11.907 8.27582C12.3277 8.27582 12.703 8.18097 13.0329 7.99126C13.3711 7.80155 13.635 7.53349 13.8247 7.18707C14.0144 6.8324 14.1093 6.42412 14.1093 5.96223C14.1093 5.49209 14.0144 5.08793 13.8247 4.74976C13.635 4.40334 13.3711 4.13528 13.0329 3.94557C12.703 3.75587 12.3277 3.66101 11.907 3.66101C11.4864 3.66101 11.1111 3.75587 10.7812 3.94557C10.4512 4.13528 10.1873 4.40334 9.98935 4.74976C9.7914 5.08793 9.69242 5.49209 9.69242 5.96223C9.69242 6.42412 9.7914 6.8324 9.98935 7.18707C10.1873 7.53349 10.4512 7.80155 10.7812 7.99126C11.1111 8.18097 11.4864 8.27582 11.907 8.27582ZM22.1713 9.33982C22.163 9.33982 22.1341 9.33982 22.0847 9.33982C22.0434 9.33982 22.0022 9.33982 21.9609 9.33982C21.9197 9.33982 21.8949 9.33982 21.8867 9.33982C20.5423 9.32333 19.4989 9.02639 18.7566 8.44903C18.0142 7.86341 17.6431 7.03036 17.6431 5.94986C17.6431 4.87761 18.0142 4.05692 18.7566 3.4878C19.5071 2.91044 20.5629 2.61763 21.9238 2.60938C21.9403 2.60938 21.9651 2.60938 21.9981 2.60938C22.0393 2.60938 22.0764 2.60938 22.1094 2.60938C22.1506 2.60938 22.1754 2.60938 22.1836 2.60938C23.5611 2.60938 24.6292 2.89807 25.388 3.47543C26.1551 4.0528 26.5386 4.87761 26.5386 5.94986C26.5386 7.03861 26.1551 7.87579 25.388 8.4614C24.6209 9.04701 23.5487 9.33982 22.1713 9.33982ZM22.1465 8.30056C22.8641 8.30056 23.458 8.20983 23.9281 8.02838C24.4065 7.84692 24.7653 7.58298 25.0045 7.23656C25.2437 6.89014 25.3633 6.46124 25.3633 5.94986C25.3633 5.44672 25.2437 5.02607 25.0045 4.6879C24.7653 4.34973 24.4065 4.09404 23.9281 3.92083C23.458 3.74762 22.8641 3.66101 22.1465 3.66101C22.13 3.66101 22.097 3.66101 22.0475 3.66101C21.9981 3.66101 21.9692 3.66101 21.9609 3.66101C21.2598 3.66101 20.6742 3.75174 20.2041 3.9332C19.7422 4.10641 19.3958 4.3621 19.1648 4.70027C18.9339 5.03844 18.8184 5.45497 18.8184 5.94986C18.8184 6.45299 18.9339 6.87777 19.1648 7.22419C19.404 7.57061 19.7546 7.83455 20.2165 8.016C20.6866 8.19746 21.2681 8.29231 21.9609 8.30056C21.9774 8.30056 22.0063 8.30056 22.0475 8.30056C22.097 8.30056 22.13 8.30056 22.1465 8.30056ZM21.5032 11.641V0.0607234H22.6661V11.641H21.5032ZM32.3744 9.31508C31.6733 9.31508 31.0547 9.17074 30.5186 8.88205C29.9907 8.59337 29.5783 8.19746 29.2814 7.69433C28.9927 7.1912 28.8483 6.61383 28.8483 5.96223C28.8483 5.31063 28.9886 4.73326 29.269 4.23013C29.5577 3.727 29.9495 3.33521 30.4444 3.05478C30.9475 2.7661 31.5125 2.62175 32.1393 2.62175C32.7744 2.62175 33.3353 2.76197 33.8219 3.04241C34.3086 3.32284 34.688 3.71875 34.9602 4.23013C35.2406 4.73326 35.3808 5.323 35.3808 5.99935C35.3808 6.04883 35.3767 6.10657 35.3685 6.17256C35.3685 6.23854 35.3643 6.3004 35.3561 6.35814H29.7763V5.50446H34.7375L34.255 5.80139C34.2632 5.38074 34.1766 5.00545 33.9952 4.67553C33.8137 4.3456 33.5621 4.08991 33.2405 3.90846C32.927 3.71875 32.56 3.6239 32.1393 3.6239C31.7269 3.6239 31.3599 3.71875 31.0382 3.90846C30.7165 4.08991 30.465 4.34973 30.2835 4.6879C30.1021 5.01782 30.0113 5.39724 30.0113 5.82614V6.02409C30.0113 6.46124 30.1103 6.85302 30.3083 7.19944C30.5145 7.53761 30.799 7.80155 31.1619 7.99126C31.5249 8.18097 31.9414 8.27582 32.4115 8.27582C32.7992 8.27582 33.1497 8.20983 33.4632 8.07786C33.7848 7.9459 34.0653 7.74794 34.3045 7.484L34.9602 8.25107C34.6632 8.59749 34.2921 8.86143 33.8467 9.04289C33.4095 9.22435 32.9188 9.31508 32.3744 9.31508ZM43.0204 9.24084V2.68362H44.2082V7.45926L48.2291 2.68362H49.3055V9.24084H48.1177V4.4652L44.1092 9.24084H43.0204ZM60.3277 9.31508C59.6266 9.31508 59.008 9.17074 58.4719 8.88205C57.944 8.59337 57.5316 8.19746 57.2347 7.69433C56.946 7.1912 56.8016 6.61383 56.8016 5.96223C56.8016 5.31063 56.9418 4.73326 57.2223 4.23013C57.511 3.727 57.9027 3.33521 58.3976 3.05478C58.9008 2.7661 59.4658 2.62175 60.0926 2.62175C60.7277 2.62175 61.2886 2.76197 61.7752 3.04241C62.2619 3.32284 62.6413 3.71875 62.9135 4.23013C63.1939 4.73326 63.3341 5.323 63.3341 5.99935C63.3341 6.04883 63.33 6.10657 63.3217 6.17256C63.3217 6.23854 63.3176 6.3004 63.3094 6.35814H57.7295V5.50446H62.6908L62.2083 5.80139C62.2165 5.38074 62.1299 5.00545 61.9484 4.67553C61.767 4.3456 61.5154 4.08991 61.1937 3.90846C60.8803 3.71875 60.5133 3.6239 60.0926 3.6239C59.6802 3.6239 59.3132 3.71875 58.9915 3.90846C58.6698 4.08991 58.4183 4.34973 58.2368 4.6879C58.0553 5.01782 57.9646 5.39724 57.9646 5.82614V6.02409C57.9646 6.46124 58.0636 6.85302 58.2615 7.19944C58.4677 7.53761 58.7523 7.80155 59.1152 7.99126C59.4781 8.18097 59.8947 8.27582 60.3648 8.27582C60.7525 8.27582 61.103 8.20983 61.4164 8.07786C61.7381 7.9459 62.0185 7.74794 62.2577 7.484L62.9135 8.25107C62.6165 8.59749 62.2454 8.86143 61.8 9.04289C61.3628 9.22435 60.8721 9.31508 60.3277 9.31508ZM70.7839 8.6841V3.72287H67.9383L67.8764 4.98483C67.8599 5.39724 67.8311 5.79727 67.7898 6.18493C67.7568 6.56434 67.6991 6.91488 67.6166 7.23656C67.5424 7.55823 67.431 7.82217 67.2826 8.02838C67.1341 8.23458 66.9361 8.36242 66.6887 8.41191L65.5133 8.20159C65.769 8.20983 65.9752 8.12735 66.132 7.95414C66.2887 7.77269 66.4083 7.52524 66.4907 7.21182C66.5815 6.89839 66.6475 6.54372 66.6887 6.14781C66.7299 5.74366 66.7629 5.32713 66.7877 4.89823L66.8867 2.68362H71.9716V8.6841H70.7839ZM65.2535 10.7626V8.20159H72.9737V10.7626H71.8603V9.24084H66.3794V10.7626H65.2535ZM79.7792 9.24084V7.85517L79.7173 7.59535V5.23227C79.7173 4.72914 79.5689 4.34148 79.2719 4.06929C78.9832 3.78886 78.5461 3.64864 77.9605 3.64864C77.5728 3.64864 77.1934 3.71463 76.8222 3.8466C76.4511 3.97032 76.1377 4.1394 75.882 4.35385L75.3871 3.46306C75.7253 3.19087 76.1294 2.98467 76.5995 2.84445C77.0779 2.69599 77.5769 2.62175 78.0966 2.62175C78.9956 2.62175 79.6885 2.84033 80.1751 3.27748C80.6617 3.71463 80.905 4.38272 80.905 5.28176V9.24084H79.7792ZM77.6264 9.31508C77.1398 9.31508 76.7109 9.2326 76.3397 9.06763C75.9768 8.90267 75.6964 8.67585 75.4984 8.38717C75.3005 8.09024 75.2015 7.75619 75.2015 7.38503C75.2015 7.03036 75.284 6.70868 75.4489 6.42C75.6222 6.13132 75.8985 5.90037 76.2779 5.72716C76.6655 5.55395 77.1852 5.46734 77.8368 5.46734H79.9153V6.32102H77.8863C77.2924 6.32102 76.8924 6.42 76.6862 6.61795C76.48 6.81591 76.3769 7.0551 76.3769 7.33554C76.3769 7.65721 76.5047 7.91703 76.7604 8.11498C77.0161 8.30469 77.3707 8.39954 77.8244 8.39954C78.2698 8.39954 78.6574 8.30056 78.9874 8.10261C79.3255 7.90465 79.5689 7.61597 79.7173 7.23656L79.9524 8.05312C79.7957 8.44078 79.5194 8.75008 79.1235 8.98103C78.7276 9.20373 78.2285 9.31508 77.6264 9.31508Z" fill="white"/>
</svg>
