<svg width="169" height="69" viewBox="0 0 169 69" fill="none" xmlns="http://www.w3.org/2000/svg">
<path d="M167.245 56.9895C166.401 60.0918 163.506 62.6746 158.556 64.5616C153.631 66.4391 146.877 67.5423 138.734 67.8146C122.462 68.3588 100.879 65.5781 77.8627 59.3171C54.8461 53.0562 34.829 44.5212 21.0745 35.8092C14.1918 31.4498 8.92719 27.0772 5.63194 22.9637C2.31997 18.8294 1.13147 15.1356 1.97536 12.0332C2.81926 8.93087 5.71509 6.34808 10.665 4.46108C15.5899 2.5836 22.344 1.48038 30.4866 1.20808C46.759 0.66391 68.3413 3.44461 91.3579 9.70554C114.375 15.9665 134.392 24.5015 148.146 33.2135C155.029 37.5729 160.293 41.9455 163.589 46.059C166.901 50.1933 168.089 53.8871 167.245 56.9895Z" stroke="white" stroke-width="2"/>
</svg>
